<?xml version="1.0" encoding="UTF-8"?>
<svg width="25px" height="25px" viewBox="0 0 25 25" version="1.1" xmlns="http://www.w3.org/2000/svg" xmlns:xlink="http://www.w3.org/1999/xlink">
    <!-- Generator: Sketch 48.2 (47327) - http://www.bohemiancoding.com/sketch -->
    <title>cart</title>
    <desc>Created with Sketch.</desc>
    <defs></defs>
    <g id="assets" stroke="none" stroke-width="1" fill="none" fill-rule="evenodd">
        <g id="cart" fill="#FFFFFF">
            <path d="M5.70312488,20.6015625 C6.21093992,20.1328102 6.79687156,19.8984375 7.46093738,19.8984375 C8.1250032,19.8984375 8.69140379,20.1328102 9.16015613,20.6015625 C9.62890847,21.0703148 9.86328113,21.6367154 9.86328113,22.3007812 C9.86328113,22.9648471 9.62890847,23.5410132 9.16015613,24.0292969 C8.69140379,24.5175806 8.1250032,24.7617188 7.46093738,24.7617188 C6.79687156,24.7617188 6.22070545,24.5175806 5.73242176,24.0292969 C5.24413806,23.5410132 4.99999988,22.9648471 4.99999988,22.3007812 C4.99999988,21.6367154 5.23437254,21.0703148 5.70312488,20.6015625 Z M0.312499881,0.73828125 L4.29687488,0.73828125 L5.41015613,3.19921875 L23.4570311,3.19921875 C23.7695327,3.19921875 24.052733,3.31640508 24.3066405,3.55078125 C24.560548,3.78515742 24.6874999,4.05859219 24.6874999,4.37109375 C24.6874999,4.60546992 24.6484378,4.80078047 24.5703124,4.95703125 L20.1757811,12.515625 C19.7460915,13.3750043 19.0429735,13.8046875 18.0664061,13.8046875 L8.98437488,13.8046875 L7.75390613,15.6796875 C7.67578074,15.875001 7.63671863,15.9921873 7.63671863,16.03125 C7.63671863,16.2265635 7.7343739,16.3242188 7.92968738,16.3242188 L21.8749999,16.3242188 L21.8749999,18.6679688 L7.63671863,18.6679688 C6.85546472,18.6679688 6.22070545,18.4531271 5.73242176,18.0234375 C5.24413806,17.5937479 4.99999988,16.9882852 4.99999988,16.2070312 C4.99999988,15.7382789 5.09765515,15.3476578 5.29296863,15.0351563 L7.10937488,12.046875 L2.77343738,3.19921875 L0.312499881,3.19921875 L0.312499881,0.73828125 Z M17.7148436,20.6015625 C18.183596,20.1328102 18.7499966,19.8984375 19.4140624,19.8984375 C20.0781282,19.8984375 20.6542943,20.1328102 21.142578,20.6015625 C21.6308617,21.0703148 21.8749999,21.6367154 21.8749999,22.3007812 C21.8749999,22.9648471 21.6308617,23.5410132 21.142578,24.0292969 C20.6542943,24.5175806 20.0781282,24.7617188 19.4140624,24.7617188 C18.7499966,24.7617188 18.183596,24.5175806 17.7148436,24.0292969 C17.2460913,23.5410132 17.0117186,22.9648471 17.0117186,22.3007812 C17.0117186,21.6367154 17.2460913,21.0703148 17.7148436,20.6015625 Z" id="ion-android-cart---Ionicons"></path>
        </g>
    </g>
</svg>